# xmcd
#
# Track frame offsets: 
#        150
#        15681
#        45071
#        56541
#        80703
#        103391
#        127323
#        153705
#        167664
#        184716
#        207959
#        225321
#        240632
#        271311
#        293237
#        318047
#        331341
#
# Disc length: 4758 seconds
#
# Revision: 0
# Processed by: cddbd v1.5.2PL0 Copyright (c) Steve Scherf et al.
# Submitted via: ExactAudioCopy v0.95a5
#
DISCID=e9129411
DTITLE=Various Artist - Akella Presents - Rockin' Blues - vol.19  CD1
DYEAR=2010
DGENRE=Blues
TTITLE0=KENT EARL HOUSMAN - Margarita Drive
TTITLE1=LARRY MILLER - What In The World
TTITLE2=The PIRATES - Voodoo
TTITLE3=MICHAEL BARCLAY - Don't Want to Touch That Woman
TTITLE4=PHILLIP WALKER - Drag Me Down
TTITLE5=B.B. CHUNG KING - When the Blues Catch Up with You
TTITLE6=MASON RUFFNER - Looded Down
TTITLE7=JAMES SOLBERG - One Of These Days
TTITLE8=Dr FEELGOOD - World Keeps Turning
TTITLE9=RED HOT BLUES - Haunted By My Past
TTITLE10=DEAN HALL - My Milkman Was Freddie King
TTITLE11=BUDDY FLETT - Blues in a Honky Tonk Key
TTITLE12=The DUSTERS - Deep. Deep Scar
TTITLE13=JOHN BLOYS and The BOOGIE STEW - I'm Free
TTITLE14=BLUES COMPANY - The World Is Mad
TTITLE15=GUITAR PETE - Rainmaker
TTITLE16=FREDDY and The SCREAMERS - Full Moon on Main Street
EXTD=
EXTT0=
EXTT1=
EXTT2=
EXTT3=
EXTT4=
EXTT5=
EXTT6=
EXTT7=
EXTT8=
EXTT9=
EXTT10=
EXTT11=
EXTT12=
EXTT13=
EXTT14=
EXTT15=
EXTT16=
PLAYORDER=
